<svg id="svg" xmlns="http://www.w3.org/2000/svg" xmlns:xlink="http://www.w3.org/1999/xlink" width="400" height="400" viewBox="0, 0, 400,400"><g id="svgg"><path id="path0" d="M344.073 38.249 C 343.608 39.009,341.149 47.097,338.607 56.221 C 336.065 65.346,326.345 99.522,317.005 132.169 L 300.024 191.527 285.035 183.997 C 249.309 166.050,243.999 160.484,251.619 148.969 C 268.813 122.986,261.953 92.422,232.569 64.096 C 204.764 37.292,191.247 42.400,201.738 75.748 C 207.548 94.213,205.197 107.774,176.849 219.318 C 158.882 290.015,146.830 307.824,114.581 311.334 C 105.041 312.372,104.592 312.639,107.497 315.537 C 114.240 322.262,111.961 322.581,57.143 322.581 C 27.742 322.581,3.687 323.053,3.687 323.631 C 3.687 331.468,29.897 356.120,46.953 364.325 L 59.804 370.507 200.000 370.507 L 340.196 370.507 353.047 364.325 C 370.103 356.120,396.313 331.468,396.313 323.631 C 396.313 323.053,368.525 322.581,334.562 322.581 C 300.599 322.581,272.811 321.958,272.811 321.198 C 272.811 320.437,287.787 267.557,306.090 203.686 C 324.394 139.815,339.653 86.313,340.000 84.793 C 340.347 83.272,343.205 73.194,346.352 62.398 C 349.499 51.601,352.074 41.440,352.074 39.817 C 352.074 36.851,345.692 35.600,344.073 38.249 M266.561 220.737 C 271.685 226.567,277.787 234.663,280.122 238.729 L 284.366 246.121 273.722 283.429 L 263.078 320.737 255.041 320.737 L 247.005 320.737 247.023 313.825 C 247.056 300.953,252.530 219.091,253.658 214.600 C 255.219 208.379,256.042 208.770,266.561 220.737 " stroke="none" fill="#ffffff" fill-rule="evenodd"></path></g></svg>