<?xml version="1.0" encoding="utf-8"?>
<!-- Svg Vector Icons : http://www.onlinewebfonts.com/icon -->
<!DOCTYPE svg PUBLIC "-//W3C//DTD SVG 1.1//EN" "http://www.w3.org/Graphics/SVG/1.1/DTD/svg11.dtd">
<svg version="1.1" xmlns="http://www.w3.org/2000/svg" xmlns:xlink="http://www.w3.org/1999/xlink" x="0px" y="0px" viewBox="0 0 1000 1000" enable-background="new 0 0 1000 1000" xml:space="preserve">
<metadata> Svg Vector Icons : http://www.onlinewebfonts.com/icon </metadata>
<g><path d="M861.2,831.1C941.2,743.9,990,627.6,990,500c0-270.6-219.4-490-490-490C229.4,10,10,229.4,10,500c0,132,52.2,251.8,137.1,339.9c33.5-94.6,103.6-173.4,196.5-217.3l75.1-35.5l-59.5-58c-38.8-37.8-61-89.3-61-144.5c0-111.4,90.3-201.8,201.8-201.8c111.4,0,201.8,90.3,201.8,201.8c0,53.8-21.1,104.2-58.1,141.7l-58.4,59.1l75.8,34C754.4,661.3,825.7,738.1,861.2,831.1z" fill="#ffffff"/><path d="M500,932.4L500,932.4c238.8,0,432.4-193.6,432.4-432.4c0-238.8-193.6-432.4-432.4-432.4C261.2,67.6,67.6,261.2,67.6,500C67.6,738.8,261.2,932.4,500,932.4L500,932.4z M500,990L500,990C229.4,990,10,770.6,10,500C10,229.4,229.4,10,500,10c270.6,0,490,219.4,490,490C990,770.6,770.6,990,500,990L500,990z" fill="#ffffff"/></g>
</svg>